<svg width="180" height="37" viewBox="0 0 180 37" fill="none" xmlns="http://www.w3.org/2000/svg">
<path d="M18.8965 10.3508C17.8742 10.3508 17.0625 9.56075 17.0625 8.56563C17.0625 7.59972 17.8742 6.80957 18.9266 6.80957C19.8889 6.80957 20.7005 7.59972 20.7005 8.56563C20.7004 9.56075 19.8888 10.3508 18.8965 10.3508Z" fill="#00A9E2"/>
<path d="M20.0086 27.4097H18.2736C17.9789 27.4097 17.9134 27.3459 17.9134 27.0273V14.0882H16.0217C15.6944 14.0882 15.6289 14.0245 15.6289 13.7377V12.4948C15.6289 12.1761 15.6944 12.1123 16.0217 12.1123H20.0086C20.3033 12.1123 20.3688 12.1761 20.3688 12.4948V27.027C20.369 27.3459 20.3034 27.4097 20.0086 27.4097Z" fill="white"/>
<path d="M26.8848 16.16C26.8848 14.5346 26.8519 13.2599 26.7539 11.9852H29.3075L29.4714 14.5348H29.5368C30.3226 13.1006 32.1559 11.6665 34.7751 11.6665C36.9686 11.6665 40.3737 12.9413 40.3737 18.2315V27.4098H37.4925V18.5183C37.4925 16.0324 36.5431 13.961 33.8257 13.961C31.9596 13.961 30.4863 15.2677 29.9625 16.8293C29.8316 17.1799 29.766 17.6578 29.766 18.1359V27.4099H26.885V16.16H26.8848Z" fill="white"/>
<path d="M49.1957 27.7284C47.5587 27.7284 46.2164 27.0591 45.6272 25.9437C45.2996 25.3061 45.2014 24.7326 45.2014 23.0755V14.0881H42.8769C42.517 14.0881 42.4844 14.0564 42.4844 13.7376V12.4948C42.4844 12.176 42.5497 12.1122 42.8769 12.1122H45.2014V8.80843C45.2014 8.61716 45.3325 8.45793 45.529 8.39413L47.2314 7.94807C47.395 7.88428 47.395 7.88428 47.4279 7.88428C47.6242 7.88428 47.657 7.94807 47.657 8.2668V12.1122H52.5679C52.7642 12.1122 52.8625 12.176 52.8625 12.3353C52.8625 12.3991 52.8625 12.3991 52.8296 12.5265L52.4696 13.7694C52.404 13.9924 52.2732 14.088 52.0112 14.088H47.657V23.0753C47.657 24.35 47.6896 24.6368 47.9843 25.0193C48.3116 25.4336 48.8681 25.6566 49.6213 25.6566C50.4396 25.6566 51.1271 25.4654 52.5679 24.8598C52.6332 24.8279 52.7315 24.796 52.797 24.796C52.8952 24.796 52.9934 24.8598 53.0261 24.9873L53.3862 26.294C53.4516 26.4214 53.4516 26.4214 53.4516 26.4533C53.4517 26.9634 50.8655 27.7284 49.1957 27.7284Z" fill="white"/>
<path d="M69.5661 20.3026H58.8508C59.0375 23.7763 60.7551 25.6885 63.779 25.6885C65.1232 25.6885 66.4671 25.338 68.1101 24.5412C68.2219 24.4774 68.3713 24.4456 68.4833 24.4456C68.5579 24.4456 68.6702 24.5094 68.7445 24.6049L69.4166 25.8479C69.4914 26.0071 69.4914 26.0071 69.4914 26.0709C69.4914 26.3257 69.1553 26.549 68.147 26.9633C66.691 27.5368 65.123 27.8555 63.5549 27.8555C58.8132 27.8555 55.7891 24.7325 55.7891 19.7926C55.7891 14.8211 58.6639 11.666 63.1442 11.666C66.1683 11.666 68.4085 13.0681 69.4165 15.4903C69.8271 16.51 69.9767 17.6894 69.9767 19.7289C69.977 20.1751 69.9022 20.3026 69.5661 20.3026ZM62.9577 13.6101C60.4562 13.6101 59.0375 15.2355 58.888 18.3267H66.9524C66.878 15.2673 65.4592 13.6101 62.9577 13.6101Z" fill="white"/>
<path d="M77.6834 27.7286C75.9153 27.7286 74.6387 26.8683 74.344 25.4977C74.1802 24.8284 74.1802 24.7965 74.1802 21.5778L73.8164 6.19574C73.8164 6.03625 73.9475 5.84511 74.1766 5.81322L75.8464 5.43082C75.879 5.39893 76.0427 5.39893 76.0755 5.39893C76.2391 5.39893 76.2718 5.46259 76.2718 5.74942L76.6357 21.6097C76.6357 23.1394 76.6357 24.1592 76.7011 24.5416C76.7993 25.3064 77.3232 25.7527 78.0433 25.7527C78.5018 25.7527 78.9928 25.6251 79.5166 25.3703C79.6148 25.3384 79.713 25.3065 79.7785 25.3065C79.8768 25.3065 79.9421 25.4021 80.0076 25.5297L80.4006 26.7088C80.4659 26.9 80.4659 26.9 80.4659 26.9638C80.4661 27.2824 78.8947 27.7286 77.6834 27.7286Z" fill="white"/>
<path d="M88.9968 27.8555C84.6478 27.8555 82.1172 24.8917 82.1172 19.8246C82.1172 14.6617 84.8264 11.666 89.4249 11.666C93.7385 11.666 96.3046 14.6616 96.3046 19.6651C96.3046 24.828 93.5957 27.8555 88.9968 27.8555ZM89.1753 13.6738C86.4661 13.6738 85.0047 15.7134 85.0047 19.5058C85.0047 21.5455 85.3966 23.394 86.1096 24.4456C86.6802 25.306 87.9277 25.8479 89.2465 25.8479C90.5299 25.8479 91.706 25.338 92.2768 24.5094C92.9893 23.4896 93.4172 21.6731 93.4172 19.6334C93.4172 15.7134 91.9555 13.6738 89.1753 13.6738Z" fill="white"/>
<path d="M99.3925 16.16C99.3925 14.5346 99.327 13.2599 99.2617 11.9852H101.783L101.914 14.5027H102.012C102.896 13.0368 104.369 11.6665 107.021 11.6665C109.149 11.6665 110.786 12.9413 111.473 14.7578H111.539C112.03 13.8654 112.684 13.2281 113.339 12.75C114.289 12.0489 115.304 11.6665 116.81 11.6665C118.938 11.6665 122.048 13.0051 122.048 18.359V27.4098H119.233V18.7096C119.233 15.7137 118.087 13.961 115.795 13.961C114.125 13.961 112.881 15.1403 112.357 16.4788C112.226 16.8931 112.128 17.3711 112.128 17.881V27.4098H109.312V18.1677C109.312 15.7137 108.199 13.961 106.006 13.961C104.238 13.961 102.896 15.3632 102.437 16.7656C102.274 17.1479 102.208 17.6577 102.208 18.1358V27.4098H99.3925V16.16Z" fill="white"/>
<path d="M138.653 20.3026H127.936C128.124 23.7763 129.842 25.6885 132.864 25.6885C134.208 25.6885 135.553 25.338 137.196 24.5412C137.309 24.4774 137.457 24.4456 137.569 24.4456C137.643 24.4456 137.755 24.5094 137.831 24.6049L138.502 25.8479C138.577 26.0071 138.577 26.0071 138.577 26.0709C138.577 26.3257 138.24 26.549 137.233 26.9633C135.777 27.5368 134.208 27.8555 132.64 27.8555C127.9 27.8555 124.875 24.7325 124.875 19.7926C124.875 14.8211 127.75 11.666 132.23 11.666C135.254 11.666 137.494 13.0681 138.502 15.4903C138.914 16.51 139.063 17.6894 139.063 19.7289C139.063 20.1751 138.987 20.3026 138.653 20.3026ZM132.044 13.6101C129.542 13.6101 128.124 15.2355 127.973 18.3267H136.038C135.964 15.2673 134.544 13.6101 132.044 13.6101Z" fill="white"/>
<path d="M147.422 27.7284C145.785 27.7284 144.443 27.0591 143.854 25.9437C143.527 25.3061 143.428 24.7326 143.428 23.0755V14.0881H141.104C140.744 14.0881 140.711 14.0564 140.711 13.7376V12.4948C140.711 12.176 140.777 12.1122 141.104 12.1122H143.428V8.80843C143.428 8.61716 143.559 8.45793 143.756 8.39413L145.458 7.94807C145.622 7.88428 145.622 7.88428 145.655 7.88428C145.851 7.88428 145.884 7.94807 145.884 8.2668V12.1122H150.794C150.991 12.1122 151.089 12.176 151.089 12.3353C151.089 12.3991 151.089 12.3991 151.057 12.5265L150.696 13.7694C150.631 13.9924 150.5 14.088 150.238 14.088H145.884V23.0753C145.884 24.35 145.916 24.6368 146.211 25.0193C146.538 25.4336 147.095 25.6566 147.848 25.6566C148.667 25.6566 149.354 25.4654 150.795 24.8598C150.86 24.8279 150.958 24.796 151.024 24.796C151.122 24.796 151.22 24.8598 151.253 24.9873L151.613 26.294C151.679 26.4214 151.679 26.4214 151.679 26.4533C151.679 26.9634 149.092 27.7284 147.422 27.7284Z" fill="white"/>
<path d="M155.115 16.7974C155.115 14.9808 155.082 13.4192 154.984 11.9852H157.505L157.636 15.0446H157.734C158.454 12.973 160.223 11.6665 162.154 11.6665C162.449 11.6665 163.467 11.814 163.729 11.8458L162.94 14.3753C162.645 14.3116 162.351 14.3116 161.958 14.3116C159.928 14.3116 158.488 15.7775 158.095 17.881C158.029 18.2633 157.996 18.7413 157.996 19.1875V27.4098H155.115V16.7974H155.115Z" fill="white"/>
<path d="M168.244 11.985L171.682 21.0995C172.075 22.1192 172.468 23.3303 172.73 24.2545H172.795C173.09 23.3303 173.418 22.1511 173.81 21.0359L176.953 11.985H179.998L175.677 22.9798C173.614 28.2699 173.416 30.4002 171.452 32.0891C170.012 33.2685 168.186 33.4834 166.723 33.5941L166.798 31.2777C167.625 31.2851 168.844 31.0182 169.678 30.2974C170.69 29.4221 170.686 29.8628 171.077 28.3267C171.183 27.911 171.158 27.091 171.158 26.9315C171.158 26.7723 171.093 26.5492 170.929 26.1985L165.102 11.9849H168.244V11.985Z" fill="white"/>
<path d="M24.9193 28.2383L19.0051 33.9952L3.08686 18.5L19.0051 3.00483L27.193 10.9751H30.2797L19.0051 0L0 18.5L19.0051 37L28.006 28.2383H24.9193Z" fill="white"/>
</svg>
