<svg width="140" height="29" viewBox="0 0 140 29" fill="none" xmlns="http://www.w3.org/2000/svg">
<path d="M14.696 8.05566C13.9009 8.05566 13.2695 7.44084 13.2695 6.66642C13.2695 5.91472 13.9009 5.2998 14.7194 5.2998C15.4679 5.2998 16.0991 5.91472 16.0991 6.66642C16.099 7.44084 15.4678 8.05566 14.696 8.05566Z" fill="#00A9E2"/>
<path d="M15.5627 21.3306H14.2132C13.984 21.3306 13.9331 21.2809 13.9331 21.033V10.9635H12.4618C12.2072 10.9635 12.1562 10.9139 12.1562 10.6907V9.72347C12.1562 9.47543 12.2072 9.42578 12.4618 9.42578H15.5627C15.7919 9.42578 15.8429 9.47543 15.8429 9.72347V21.0328C15.843 21.2809 15.792 21.3306 15.5627 21.3306Z" fill="black"/>
<path d="M20.9104 12.5761C20.9104 11.3112 20.8848 10.3191 20.8086 9.32714H22.7947L22.9222 11.3113H22.973C23.5842 10.1952 25.0102 9.0791 27.0473 9.0791C28.7534 9.0791 31.4018 10.0712 31.4018 14.1881V21.3309H29.1608V14.4114C29.1608 12.4768 28.4224 10.8647 26.3089 10.8647C24.8574 10.8647 23.7115 11.8816 23.3042 13.0969C23.2023 13.3697 23.1513 13.7417 23.1513 14.1138V21.331H20.9105V12.5761H20.9104Z" fill="black"/>
<path d="M38.2629 21.5789C36.9897 21.5789 35.9456 21.0581 35.4874 20.1901C35.2326 19.6939 35.1562 19.2475 35.1562 17.9579V10.9637H33.3483C33.0684 10.9637 33.043 10.939 33.043 10.691V9.72374C33.043 9.4757 33.0937 9.42606 33.3483 9.42606H35.1562V6.85494C35.1562 6.70609 35.2582 6.58217 35.411 6.53253L36.7351 6.18539C36.8623 6.13574 36.8623 6.13574 36.8879 6.13574C37.0406 6.13574 37.0661 6.18539 37.0661 6.43343V9.42606H40.8857C41.0384 9.42606 41.1149 9.4757 41.1149 9.59962C41.1149 9.64927 41.1149 9.64927 41.0893 9.74847L40.8092 10.7157C40.7583 10.8893 40.6565 10.9636 40.4527 10.9636H37.0661V17.9578C37.0661 18.9498 37.0915 19.173 37.3207 19.4707C37.5753 19.7931 38.0081 19.9666 38.5939 19.9666C39.2304 19.9666 39.7651 19.8178 40.8857 19.3465C40.9365 19.3217 41.0129 19.2969 41.0639 19.2969C41.1403 19.2969 41.2166 19.3465 41.2421 19.4457L41.5222 20.4626C41.573 20.5618 41.573 20.5618 41.573 20.5866C41.5731 20.9836 39.5616 21.5789 38.2629 21.5789Z" fill="black"/>
<path d="M54.1061 15.8003H45.772C45.9172 18.5036 47.2531 19.9918 49.6051 19.9918C50.6505 19.9918 51.6958 19.719 52.9736 19.0989C53.0606 19.0492 53.1768 19.0245 53.2639 19.0245C53.322 19.0245 53.4093 19.0742 53.4671 19.1484L53.9898 20.1158C54.048 20.2397 54.048 20.2397 54.048 20.2893C54.048 20.4876 53.7866 20.6614 53.0024 20.9838C51.8699 21.4301 50.6503 21.6782 49.4307 21.6782C45.7427 21.6782 43.3906 19.2477 43.3906 15.4034C43.3906 11.5345 45.6266 9.0791 49.1113 9.0791C51.4633 9.0791 53.2058 10.1703 53.9897 12.0553C54.3091 12.8488 54.4255 13.7666 54.4255 15.3539C54.4257 15.7011 54.3675 15.8003 54.1061 15.8003ZM48.9662 10.5921C47.0206 10.5921 45.9172 11.857 45.8009 14.2626H52.0732C52.0154 11.8817 50.9118 10.5921 48.9662 10.5921Z" fill="black"/>
<path d="M60.4217 21.5787C59.0466 21.5787 58.0536 20.9091 57.8244 19.8425C57.697 19.3217 57.697 19.2969 57.697 16.792L57.4141 4.82127C57.4141 4.69715 57.516 4.54841 57.6942 4.52358L58.9929 4.226C59.0183 4.20117 59.1456 4.20117 59.1711 4.20117C59.2984 4.20117 59.3238 4.25072 59.3238 4.47394L59.6069 16.8168C59.6069 18.0072 59.6069 18.8009 59.6577 19.0985C59.7341 19.6937 60.1416 20.041 60.7017 20.041C61.0583 20.041 61.4402 19.9417 61.8476 19.7434C61.9239 19.7186 62.0003 19.6938 62.0513 19.6938C62.1277 19.6938 62.1785 19.7681 62.2295 19.8674L62.5351 20.785C62.5859 20.9339 62.5859 20.9339 62.5859 20.9835C62.5861 21.2315 61.3638 21.5787 60.4217 21.5787Z" fill="black"/>
<path d="M69.218 21.6782C65.8354 21.6782 63.8672 19.3717 63.8672 15.4283C63.8672 11.4105 65.9743 9.0791 69.551 9.0791C72.906 9.0791 74.9018 11.4104 74.9018 15.3042C74.9018 19.3221 72.7949 21.6782 69.218 21.6782ZM69.3568 10.6416C67.2497 10.6416 66.113 12.2288 66.113 15.1802C66.113 16.7675 66.4178 18.2061 66.9724 19.0245C67.4162 19.6941 68.3865 20.1158 69.4122 20.1158C70.4104 20.1158 71.3252 19.719 71.7691 19.0742C72.3232 18.2805 72.6561 16.8668 72.6561 15.2795C72.6561 12.2288 71.5192 10.6416 69.3568 10.6416Z" fill="black"/>
<path d="M77.3049 12.5761C77.3049 11.3112 77.2539 10.3191 77.2031 9.32714H79.1638L79.2656 11.2863H79.342C80.0295 10.1455 81.1753 9.0791 83.2381 9.0791C84.8929 9.0791 86.1662 10.0712 86.7011 11.4848H86.7519C87.1337 10.7904 87.6431 10.2944 88.1523 9.92232C88.8909 9.37669 89.6804 9.0791 90.8516 9.0791C92.5067 9.0791 94.9259 10.1208 94.9259 14.2873V21.3309H92.7361V14.5602C92.7361 12.2287 91.8446 10.8647 90.0622 10.8647C88.7635 10.8647 87.7958 11.7825 87.3886 12.8241C87.2867 13.1465 87.2104 13.5186 87.2104 13.9154V21.3309H85.0204V14.1385C85.0204 12.2287 84.1547 10.8647 82.4484 10.8647C81.0735 10.8647 80.0295 11.956 79.6731 13.0473C79.5457 13.3448 79.4949 13.7416 79.4949 14.1137V21.3309H77.3049V12.5761Z" fill="black"/>
<path d="M107.842 15.8003H99.506C99.6517 18.5036 100.988 19.9918 103.339 19.9918C104.384 19.9918 105.43 19.719 106.708 19.0989C106.796 19.0492 106.911 19.0245 106.998 19.0245C107.056 19.0245 107.143 19.0742 107.202 19.1484L107.724 20.1158C107.782 20.2397 107.782 20.2397 107.782 20.2893C107.782 20.4876 107.52 20.6614 106.737 20.9838C105.604 21.4301 104.384 21.6782 103.165 21.6782C99.4776 21.6782 97.125 19.2477 97.125 15.4034C97.125 11.5345 99.3615 9.0791 102.846 9.0791C105.198 9.0791 106.94 10.1703 107.724 12.0553C108.044 12.8488 108.16 13.7666 108.16 15.3539C108.16 15.7011 108.101 15.8003 107.842 15.8003ZM102.701 10.5921C100.755 10.5921 99.6517 11.857 99.5345 14.2626H105.807C105.75 11.8817 104.646 10.5921 102.701 10.5921Z" fill="black"/>
<path d="M114.661 21.5789C113.388 21.5789 112.344 21.0581 111.886 20.1901C111.631 19.6939 111.555 19.2475 111.555 17.9579V10.9637H109.747C109.467 10.9637 109.441 10.939 109.441 10.691V9.72374C109.441 9.4757 109.492 9.42606 109.747 9.42606H111.555V6.85494C111.555 6.70609 111.657 6.58217 111.81 6.53253L113.134 6.18539C113.261 6.13574 113.261 6.13574 113.286 6.13574C113.439 6.13574 113.465 6.18539 113.465 6.43343V9.42606H117.284C117.437 9.42606 117.513 9.4757 117.513 9.59962C117.513 9.64927 117.513 9.64927 117.488 9.74847L117.208 10.7157C117.157 10.8893 117.055 10.9636 116.851 10.9636H113.465V17.9578C113.465 18.9498 113.49 19.173 113.719 19.4707C113.974 19.7931 114.407 19.9666 114.992 19.9666C115.629 19.9666 116.164 19.8178 117.284 19.3465C117.335 19.3217 117.412 19.2969 117.462 19.2969C117.539 19.2969 117.615 19.3465 117.641 19.4457L117.921 20.4626C117.972 20.5618 117.972 20.5618 117.972 20.5866C117.972 20.9836 115.96 21.5789 114.661 21.5789Z" fill="black"/>
<path d="M120.645 13.0721C120.645 11.6584 120.619 10.4431 120.543 9.32714H122.504L122.605 11.708H122.682C123.242 10.0959 124.617 9.0791 126.119 9.0791C126.348 9.0791 127.14 9.19385 127.344 9.21867L126.731 11.1871C126.501 11.1376 126.272 11.1376 125.967 11.1376C124.388 11.1376 123.268 12.2784 122.962 13.9154C122.911 14.2129 122.885 14.5849 122.885 14.9322V21.3309H120.645V13.0721H120.645Z" fill="black"/>
<path d="M130.859 9.32725L133.532 16.4204C133.838 17.214 134.144 18.1565 134.347 18.8757H134.398C134.627 18.1565 134.882 17.2388 135.188 16.3709L137.632 9.32725H140L136.639 17.8837C135.035 22.0006 134.881 23.6584 133.353 24.9728C132.233 25.8906 130.813 26.0579 129.675 26.144L129.734 24.3413C130.376 24.3471 131.325 24.1393 131.973 23.5785C132.761 22.8972 132.757 23.2402 133.062 22.0448C133.144 21.7213 133.125 21.0831 133.125 20.959C133.125 20.8351 133.074 20.6615 132.947 20.3885L128.414 9.32715H130.859V9.32725Z" fill="black"/>
<path d="M19.3817 21.9757L14.7817 26.4559L2.40089 14.3972L14.7817 2.33843L21.1501 8.54111H23.5509L14.7817 0L0 14.3972L14.7817 28.7943L21.7825 21.9757H19.3817Z" fill="black"/>
</svg>
